<?xml version="1.0" encoding="UTF-8"?>
<svg width="248px" height="43px" viewBox="0 0 248 43" version="1.1" xmlns="http://www.w3.org/2000/svg" xmlns:xlink="http://www.w3.org/1999/xlink">
    <!-- Generator: Sketch 64 (93537) - https://sketch.com -->
    <title>Group Copy 5</title>
    <desc>Created with Sketch.</desc>
    <g id="Page-1" stroke="none" stroke-width="1" fill="none" fill-rule="evenodd">
        <g id="web" transform="translate(-60.000000, -43.000000)" fill="#FFFFFF">
            <g id="Group-Copy-5" transform="translate(60.000000, 21.000000)">
                <path d="M23.7595544,38.5404475 L23.7016199,38.7279489 C23.5657627,39.1974148 23.492951,39.6936526 23.492951,40.2068966 C23.492951,43.139719 25.8704734,45.5172414 28.8032959,45.5172414 C29.656985,45.5172414 30.4636246,45.3157982 31.1782735,44.9578529 C38.2182726,51.6017779 42.367655,57.4078344 40.9645989,59.1404644 C40.2941761,59.9683676 38.4504466,59.7495995 35.839017,58.694765 C30.6567392,63.5867558 23.1337375,65.7579651 15.7450681,63.7781771 C4.41632492,60.7426495 -2.30665433,49.0981061 0.728873649,37.7693614 C1.26650169,35.7629062 2.0741826,33.9009275 3.10233231,32.2120526 C1.4979705,29.8478599 0.884607218,28.0668481 1.5607636,27.2318646 C3.32069709,25.0585277 13.1661235,30.0980137 23.7595544,38.5404475 Z M26.7376873,22.7531636 C38.0664305,25.7886911 44.7894098,37.4332346 41.7538818,48.7619792 C41.5082637,49.6786384 41.2062811,50.565143 40.852662,51.4187632 C39.4018535,49.0782176 36.8241725,46.0512451 33.4632492,42.755757 C33.8778552,41.9990179 34.1136407,41.1304926 34.1136407,40.2068966 C34.1136407,37.2740741 31.7361183,34.8965517 28.8032959,34.8965517 C27.6582658,34.8965517 26.5978785,35.2589506 25.7305753,35.8753071 C25.6426541,35.8033167 25.5531547,35.7306383 25.4634158,35.6579691 C19.7629857,31.0418519 14.2269974,27.3788084 9.98852596,25.25717 C14.807886,22.2460779 20.8159305,21.1664336 26.7376873,22.7531636 Z" id="Combined-Shape"></path>
                <text id="STARPLAN" font-family="MAW" font-size="22" font-weight="400" letter-spacing="12.2222219">
                    <tspan x="79.4674572" y="19">STARPLAN</tspan>
                </text>
            </g>
        </g>
    </g>
</svg>